<svg xmlns="http://www.w3.org/2000/svg" viewBox="0 0 5177.78 692.99"><defs><style>.cls-1{fill:#2a3044;}</style></defs><title>SwiftReply</title><g id="Calque_2" data-name="Calque 2"><g id="Calque_1-2" data-name="Calque 1"><path class="cls-1" d="M5003.88,109.59H4827.93c-19.27,0-38.87,12.08-46.62,28.72-4.93,10.59-4.46,21.83,1.29,30.84,6,9.38,16.68,14.77,29.35,14.77H4987.9c19.26,0,38.87-12.08,46.62-28.73,4.93-10.58,4.46-21.82-1.29-30.83C5027.25,115,5016.55,109.59,5003.88,109.59Z"/><path class="cls-1" d="M4869.34,201H4693.4c-19.27,0-38.88,12.08-46.62,28.72-4.93,10.59-4.46,21.83,1.28,30.84,6,9.39,16.69,14.77,29.36,14.77h175.95c19.26,0,38.87-12.08,46.62-28.73,4.93-10.58,4.46-21.82-1.29-30.83C4892.72,206.41,4882,201,4869.34,201Z"/><path class="cls-1" d="M4735.81,292.47H4559.87c-19.27,0-38.88,12.08-46.62,28.73-4.93,10.58-4.46,21.82,1.28,30.83,6,9.39,16.69,14.77,29.36,14.77h175.94c19.27,0,38.88-12.08,46.63-28.73,4.92-10.58,4.45-21.82-1.29-30.83C4759.19,297.85,4748.49,292.47,4735.81,292.47Z"/><path class="cls-1" d="M5173.11,29.25c-6-9.38-16.68-14.77-29.35-14.77H3919.32c-30.64,0-64.55,11.09-93.1,30.44-1.13.72-2.22,1.48-3.25,2.25-21.88,15.54-38.46,34.52-47.94,54.89l-159.4,342.48c-11.79,25.34-11.41,50.19,1,70.14a27.54,27.54,0,0,0,1.47,2.54,28.91,28.91,0,0,0,3.75,4.66c14.66,17.5,38.5,27.12,67.29,27.12h755.1c.44,0,.88,0,1.31,0,15.65-.46,32.14-5.88,46.54-15.33a93.83,93.83,0,0,0,9.13-6.82,75.33,75.33,0,0,0,19.84-25.22c6.09-13.08,6.82-25.43,2.16-36.68a45,45,0,0,0-7.78-12.26L4381.4,271.53c-11.28-15.24-35.14-17.43-55.49-5.08-11.79,7.15-19.84,17.76-22.07,29.11a30.23,30.23,0,0,0,5.21,24.16l114.68,155h-663l260.72-149.11c11.89-6.8,20.28-17.14,23-28.35a30.66,30.66,0,0,0-3.8-24.13c-10.49-16.24-34.26-19.41-55.3-7.38L3711,422.63l138.66-297.92L4145,313.4a37.17,37.17,0,0,0,20.05,5.51,51.62,51.62,0,0,0,18.93-3.8L4748.9,88.82h378.88c19.26,0,38.87-12.09,46.62-28.73C5179.33,49.5,5178.86,38.26,5173.11,29.25ZM4184.43,239.44,3948.61,88.82h611.84Z"/><path class="cls-1" d="M384.83,142.17l-80.39,25.31q-5.22-30.51-30.52-55.83T201,86.34q-39.47,0-65.14,22.34t-25.68,53.59q0,54.35,61.79,67.73l75.92,15.64Q316.34,259,353.57,300t37.21,97.51q0,65.52-50.24,112.77T204,557.52q-93,0-145.15-48.76T0,395.25l83.37-23.82q4.45,44.67,35.73,75.18T204,477.13q46.16,0,71.09-20.47T300,404.18q0-26-18.61-45t-52.1-26.42l-74.43-15.64Q93,304.45,56.94,265.73T20.84,169q0-66.24,52.85-113.89T200.23,7.44Q284.34,7.44,329,48T384.83,142.17Z"/><path class="cls-1" d="M669.17,183.86H758.5L844.1,434.7l72.2-250.84h87.83L888,546.35H801.67L711.6,285.83,623.77,546.35H535.19L417.58,183.86h92.3L583.57,434.7Z"/><path class="cls-1" d="M1072.61,96a53.74,53.74,0,0,1-16.38-39.45q0-23.05,16.38-39.82T1112.06,0q23.81,0,40.19,16.38t16.38,40.19A53.78,53.78,0,0,1,1152.25,96q-16.38,16.38-40.19,16.38A53.74,53.74,0,0,1,1072.61,96Zm82.62,450.33h-85.6V183.86h85.6Z"/><path class="cls-1" d="M1427.66,81.13q-21.59,0-37.59,12.29t-16,42.8v47.64h84.11V259h-84.11V546.35H1287V259h-63.27V183.86H1287V134q0-60.28,35-95.27t91.55-35q30.51,0,45.41,7.45V84.86Q1446.26,81.14,1427.66,81.13Z"/><path class="cls-1" d="M1645.75,73V183.86h75.18v76.66h-75.18V428.75q0,23.82,11.16,34.61t35,10.79a151.13,151.13,0,0,0,29.77-3v71.46q-19.37,8.19-52.85,8.19-50.62,0-79.64-28.66t-29-79.27V260.52h-67V183.86h18.61q27.54,0,41.69-15.64t14.14-40.94V73Z"/><path class="cls-1" d="M2081.93,546.35,1971,337.94h-65.5V546.35h-90.07V18.61h202.47q74.41,0,119.84,45.78t45.4,114.25q0,56.58-32,96.77T2064.07,329l119.09,217.35ZM1905.52,259h96q40.92,0,65.87-22t24.94-58.44q0-37.2-24.94-59.17t-65.87-22h-96Z"/><path class="cls-1" d="M2506.21,419.81l72.94,23.08q-15.63,49.88-58.43,82.25T2415.4,557.52q-77.43,0-131.38-52.85t-54-141.43q0-83.36,52.48-137t123.93-53.59q83.36,0,130.27,51T2583.62,361q0,23.08-2.23,27.54h-265q1.48,40.95,30.14,67.74t68.86,26.79Q2485.35,483.08,2506.21,419.81Zm-187.58-94.53h177.9Q2495,291,2472.34,268t-65.13-23.08q-38.72,0-62.53,24.19T2318.63,325.28Z"/><path class="cls-1" d="M2751.83,687.78h-85.6V183.86h83.37V233q14.13-24.55,44.66-40.94T2865,175.67q78.15,0,122.81,53.22t44.67,135.84q0,82.62-46.9,136.59t-123.56,54q-37.23,0-66.25-14.15t-43.92-35.72Zm194.28-323q0-50.61-26.8-81.5t-70.71-30.89q-43.17,0-70.34,30.89t-27.17,81.5q0,51.36,27.17,82.63t70.34,31.26q43.16,0,70.34-31.26T2946.11,364.73Z"/><path class="cls-1" d="M3202.16,546.35h-86.35V7.44h86.35Z"/><path class="cls-1" d="M3424,693h-92.3l87.09-189.81L3263.93,183.86h97.51l104.21,229.26,97.51-229.26h91.56Z"/></g></g></svg>